<svg viewBox="0 0 120 120" xmlns="http://www.w3.org/2000/svg">
  <!-- Background circle for main icon -->
  <circle cx="60" cy="60" r="45" fill="#4F46E5" stroke="none"/>
  
  <!-- Connected nodes representing referral network -->
  <g fill="white">
    <!-- Central hub node -->
    <circle cx="60" cy="60" r="8"/>
    
    <!-- Surrounding nodes -->
    <circle cx="35" cy="35" r="5"/>
    <circle cx="85" cy="35" r="5"/>
    <circle cx="90" cy="70" r="5"/>
    <circle cx="75" cy="95" r="5"/>
    <circle cx="35" cy="85" r="5"/>
    
    <!-- Connection lines -->
    <line x1="60" y1="60" x2="35" y2="35" stroke="white" stroke-width="3" opacity="0.8"/>
    <line x1="60" y1="60" x2="85" y2="35" stroke="white" stroke-width="3" opacity="0.8"/>
    <line x1="60" y1="60" x2="90" y2="70" stroke="white" stroke-width="3" opacity="0.8"/>
    <line x1="60" y1="60" x2="75" y2="95" stroke="white" stroke-width="3" opacity="0.8"/>
    <line x1="60" y1="60" x2="35" y2="85" stroke="white" stroke-width="3" opacity="0.8"/>
    
    <!-- Secondary connections -->
    <line x1="35" y1="35" x2="85" y2="35" stroke="white" stroke-width="2" opacity="0.6"/>
    <line x1="85" y1="35" x2="90" y2="70" stroke="white" stroke-width="2" opacity="0.6"/>
  </g>
  
  <!-- Arrow indicating flow/direction -->
  <path d="M 110 55 L 118 60 L 110 65 L 112 60 Z" fill="#10B981" stroke="none"/>
  
  <!-- Subtle gradient overlay on main circle -->
  <defs>
    <radialGradient id="circleGradient" cx="0.3" cy="0.3">
      <stop offset="0%" stop-color="rgba(255,255,255,0.2)"/>
      <stop offset="100%" stop-color="rgba(255,255,255,0)"/>
    </radialGradient>
  </defs>
  <circle cx="60" cy="60" r="45" fill="url(#circleGradient)" stroke="none"/>
</svg>